<svg width="22" height="22" viewBox="0 0 22 22" fill="none" xmlns="http://www.w3.org/2000/svg">
<path fill-rule="evenodd" clip-rule="evenodd" d="M5.7381 1C3.12132 1 1 3.12132 1 5.7381V16.2143C1 18.8311 3.12132 20.9524 5.7381 20.9524H16.2143C18.8311 20.9524 20.9524 18.8311 20.9524 16.2143V5.7381C20.9524 3.12132 18.8311 1 16.2143 1H5.7381ZM0 5.7381C0 2.56903 2.56903 0 5.7381 0H16.2143C19.3833 0 21.9524 2.56903 21.9524 5.7381V16.2143C21.9524 19.3833 19.3833 21.9524 16.2143 21.9524H5.7381C2.56903 21.9524 0 19.3833 0 16.2143V5.7381ZM11.5628 7.28011C10.795 7.16625 10.0108 7.2974 9.32179 7.65492C8.63278 8.01243 8.07404 8.5781 7.72505 9.27147C7.37606 9.96483 7.25459 10.7506 7.37791 11.517C7.50123 12.2834 7.86307 12.9913 8.41195 13.5402C8.96084 14.0891 9.66882 14.451 10.4352 14.5743C11.2016 14.6976 11.9873 14.5761 12.6807 14.2271C13.3741 13.8781 13.9398 13.3194 14.2973 12.6304C14.6548 11.9414 14.7859 11.1572 14.6721 10.3893C14.5559 9.6061 14.191 8.88099 13.6311 8.32111C13.0712 7.76122 12.3461 7.39625 11.5628 7.28011ZM8.86122 6.76729C9.73693 6.3129 10.7336 6.14621 11.7095 6.29093C12.705 6.43854 13.6266 6.9024 14.3382 7.614C15.0498 8.3256 15.5136 9.24719 15.6613 10.2427C15.806 11.2186 15.6393 12.2153 15.1849 13.091C14.7305 13.9667 14.0116 14.6768 13.1303 15.1204C12.2491 15.5639 11.2504 15.7183 10.2763 15.5616C9.30229 15.4048 8.40246 14.945 7.70485 14.2473C7.00723 13.5497 6.54735 12.6499 6.39061 11.6758C6.23387 10.7018 6.38826 9.70312 6.83182 8.82188C7.27537 7.94063 7.98551 7.22168 8.86122 6.76729ZM16.7381 4.71429C16.462 4.71429 16.2381 4.93814 16.2381 5.21429C16.2381 5.49043 16.462 5.71429 16.7381 5.71429H16.7481C17.0242 5.71429 17.2481 5.49043 17.2481 5.21429C17.2481 4.93814 17.0242 4.71429 16.7481 4.71429H16.7381Z" fill="black"/>
</svg>
