<svg width="23" height="19" viewBox="0 0 23 19" fill="none" xmlns="http://www.w3.org/2000/svg">
<path d="M22.5001 0.510056C21.5424 1.18553 20.4822 1.70217 19.3601 2.04006C18.7578 1.34757 17.9574 0.856748 17.0671 0.633982C16.1768 0.411216 15.2396 0.467251 14.3821 0.794509C13.5247 1.12177 12.7885 1.70446 12.273 2.46377C11.7576 3.22309 11.4878 4.12239 11.5001 5.04006V6.04006C9.74269 6.08562 8.00134 5.69587 6.43107 4.9055C4.8608 4.11513 3.51038 2.94869 2.50006 1.51006C2.50006 1.51006 -1.49994 10.5101 7.50006 14.5101C5.44059 15.908 2.98722 16.609 0.500061 16.5101C9.50006 21.5101 20.5001 16.5101 20.5001 5.01006C20.4991 4.73151 20.4724 4.45365 20.4201 4.18006C21.4407 3.17355 22.1609 1.90277 22.5001 0.510056V0.510056Z" stroke="black" stroke-linecap="round" stroke-linejoin="round"/>
</svg>
